<svg width="125" height="125" viewBox="0 0 125 125" fill="none" xmlns="http://www.w3.org/2000/svg">
<path d="M38.0984 93.3524C42.407 90.3693 45.259 85.2374 45.259 79.4147C45.259 70.2211 38.1533 62.7413 29.4192 62.7413C20.6851 62.7413 13.5793 70.2211 13.5793 79.4147C13.5793 85.2371 16.4314 90.3693 20.74 93.3524C8.74145 97.2597 0 109.047 0 122.944C0 123.489 0.205775 124.012 0.572057 124.398C0.938339 124.783 1.43512 125 1.95312 125H56.8848C57.4028 125 57.8996 124.783 58.2658 124.398C58.6321 124.012 58.8379 123.489 58.8379 122.944C58.8379 109.047 50.0967 97.26 38.0984 93.3524ZM17.4856 79.4147C17.4856 72.4883 22.8389 66.8532 29.4192 66.8532C35.9995 66.8532 41.3528 72.4883 41.3528 79.4147C41.3528 86.3401 36.0012 91.9747 29.4224 91.9765H29.4163C22.8372 91.9747 17.4856 86.3404 17.4856 79.4147ZM3.98022 120.888C4.98071 107.038 16.0063 96.0902 29.4158 96.0884H29.4221C42.8315 96.0902 53.8569 107.038 54.8574 120.888H3.98022ZM104.26 93.3524C108.569 90.3693 111.421 85.2374 111.421 79.4147C111.421 70.2211 104.315 62.7413 95.5813 62.7413C86.8472 62.7413 79.7415 70.2211 79.7415 79.4147C79.7415 85.2371 82.5935 90.3693 86.9021 93.3524C74.9036 97.2597 66.1621 109.047 66.1621 122.944C66.1621 123.489 66.3679 124.012 66.7342 124.398C67.1004 124.783 67.5972 125 68.1152 125H123.047C123.565 125 124.062 124.783 124.428 124.398C124.794 124.012 125 123.489 125 122.944C125 109.047 116.259 97.26 104.26 93.3524ZM83.6477 79.4147C83.6477 72.4883 89.001 66.8532 95.5813 66.8532C102.161 66.8532 107.515 72.4883 107.515 79.4147C107.515 86.3401 102.163 91.9747 95.5842 91.9765H95.5781C88.9993 91.9747 83.6477 86.3404 83.6477 79.4147ZM70.1423 120.888C71.1428 107.038 82.1685 96.0902 95.5779 96.0884H95.5842C108.994 96.0902 120.019 107.038 121.02 120.888H70.1423ZM14.4636 37.3435H19.3799L25.9868 53.0756C26.14 53.4398 26.3903 53.7493 26.7075 53.9666C27.0246 54.1839 27.3948 54.2995 27.7732 54.2995C28.1516 54.2995 28.5218 54.1839 28.8389 53.9666C29.156 53.7493 29.4064 53.4398 29.5596 53.0756L36.1665 37.3435H88.8337L95.4409 53.0756C95.5941 53.4398 95.8444 53.7493 96.1616 53.9666C96.4787 54.1839 96.8489 54.2995 97.2273 54.2995C97.6057 54.2995 97.9759 54.1839 98.293 53.9666C98.6101 53.7493 98.8605 53.4398 99.0137 53.0756L105.621 37.3435H110.537C114.306 37.3435 117.373 34.1155 117.373 30.1478V7.19578C117.373 3.22808 114.306 0 110.537 0H14.4636C10.6943 0 7.62769 3.22808 7.62769 7.19578V30.148C7.62769 34.1155 10.6943 37.3435 14.4636 37.3435ZM11.5339 7.19578C11.5339 5.49526 12.8481 4.11188 14.4636 4.11188H110.537C112.152 4.11188 113.466 5.49526 113.466 7.19578V30.148C113.466 31.8485 112.152 33.2319 110.537 33.2319H104.349C103.97 33.232 103.6 33.3477 103.283 33.5651C102.966 33.7825 102.715 34.0922 102.562 34.4565L97.2271 47.1599L91.8921 34.4567C91.7391 34.0923 91.4888 33.7826 91.1717 33.5651C90.8545 33.3477 90.4842 33.2319 90.1057 33.2319H34.8945C34.5161 33.232 34.1457 33.3477 33.8286 33.5652C33.5115 33.7826 33.2612 34.0924 33.1082 34.4567L27.7732 47.1599L22.4382 34.4567C22.2852 34.0924 22.0349 33.7826 21.7178 33.5652C21.4006 33.3477 21.0303 33.232 20.6519 33.2319H14.4636C12.8481 33.2319 11.5339 31.8485 11.5339 30.148V7.19578ZM23.6816 18.6718C23.6816 18.1265 23.8874 17.6036 24.2537 17.218C24.62 16.8324 25.1168 16.6158 25.6348 16.6158H48.7175C49.2355 16.6158 49.7323 16.8324 50.0986 17.218C50.4649 17.6036 50.6707 18.1265 50.6707 18.6718C50.6707 19.217 50.4649 19.74 50.0986 20.1255C49.7323 20.5111 49.2355 20.7277 48.7175 20.7277H25.6348C25.1168 20.7277 24.62 20.5111 24.2537 20.1255C23.8874 19.74 23.6816 19.217 23.6816 18.6718ZM84.9414 18.6718C84.9414 18.1265 85.1472 17.6036 85.5135 17.218C85.8797 16.8324 86.3765 16.6158 86.8945 16.6158H99.3652C99.8832 16.6158 100.38 16.8324 100.746 17.218C101.113 17.6036 101.318 18.1265 101.318 18.6718C101.318 19.217 101.113 19.74 100.746 20.1255C100.38 20.5111 99.8832 20.7277 99.3652 20.7277H86.8945C86.3765 20.7277 85.8797 20.5111 85.5135 20.1255C85.1472 19.74 84.9414 19.217 84.9414 18.6718ZM58.1221 18.6718C58.1221 18.1265 58.3278 17.6036 58.6941 17.218C59.0604 16.8324 59.5572 16.6158 60.0752 16.6158H76.7258C77.2438 16.6158 77.7406 16.8324 78.1069 17.218C78.4732 17.6036 78.679 18.1265 78.679 18.6718C78.679 19.217 78.4732 19.74 78.1069 20.1255C77.7406 20.5111 77.2438 20.7277 76.7258 20.7277H60.0752C59.5572 20.7277 59.0604 20.5111 58.6941 20.1255C58.3278 19.74 58.1221 19.217 58.1221 18.6718Z" fill="#B5B5B5"/>
</svg>
