<svg width="125" height="125" viewBox="0 0 125 125" fill="none" xmlns="http://www.w3.org/2000/svg">
<path d="M117.136 1.89453H83.1508C79.8585 1.89453 77.1786 4.57256 77.1786 7.8648V25.5614H74.0085V23.2555C74.015 23.1923 74.0455 23.1371 74.0455 23.072C74.0455 22.4339 73.7311 21.8697 73.2483 21.5258L54.1703 2.44927C54.0076 2.28658 53.8163 2.17029 53.615 2.07805C53.5576 2.05173 53.4995 2.03601 53.4396 2.01555C53.2792 1.96025 53.1167 1.92824 52.9474 1.91745C52.9074 1.91499 52.8714 1.89453 52.8311 1.89453H22.3375C18.6423 1.89453 15.6368 4.90741 15.6368 8.61214V25.5614H14.9801C10.8298 25.5614 7.45438 28.946 7.45438 33.1076V105.906H3.78847C2.74169 105.906 1.89453 106.753 1.89453 107.8V114.773C1.89453 119.369 5.63241 123.107 10.2286 123.107H114.773C119.369 123.107 123.107 119.369 123.107 114.773V107.8C123.107 106.753 122.259 105.906 121.213 105.906H117.547V40.1756C120.645 39.9601 123.107 37.3966 123.107 34.2449V7.8648C123.107 4.57256 120.428 1.89453 117.136 1.89453ZM54.725 8.36044L67.5425 21.1779H57.6567C56.0402 21.1779 54.725 19.8703 54.725 18.2629V8.36044ZM19.4246 8.61214C19.4246 6.99737 20.7322 5.68241 22.3375 5.68241H50.9371V18.2631C50.9371 21.9585 53.9519 24.9659 57.6567 24.9659H70.2207V74.5542C70.2207 76.1597 68.9131 77.4673 67.3076 77.4673H22.3375C20.732 77.4673 19.4245 76.1597 19.4245 74.5542L19.4246 8.61214ZM119.319 114.773C119.319 117.279 117.279 119.319 114.773 119.319H10.2286C7.72237 119.319 5.68241 117.279 5.68241 114.773V109.694H48.333L50.5782 114.591C50.8871 115.265 51.5604 115.695 52.3002 115.695H72.7193C73.4591 115.695 74.1324 115.265 74.4413 114.591L76.6866 109.694H119.319V114.773ZM75.4714 105.906C74.7316 105.906 74.0584 106.337 73.7495 107.01L71.5042 111.907H53.5156L51.2703 107.01C50.9614 106.337 50.2881 105.906 49.5483 105.906H11.2421V33.1074C11.2421 31.0358 12.9195 29.3491 14.9799 29.3491H15.6366V74.554C15.6366 78.2495 18.6421 81.255 22.3375 81.255H67.3074C71.0029 81.255 74.0084 78.2495 74.0084 74.554V29.3493H77.1786V34.2451C77.1786 37.5373 79.8585 40.2173 83.1508 40.2173H93.5546L98.5595 47.6949C98.9108 48.2201 99.501 48.5347 100.134 48.5347C100.766 48.5347 101.356 48.2184 101.708 47.6932L106.711 40.2173H113.759V105.906L75.4714 105.906ZM119.319 34.2449C119.319 35.4489 118.34 36.4292 117.136 36.4292H115.681C115.671 36.4292 115.663 36.4237 115.653 36.4237C115.643 36.4237 115.635 36.4292 115.626 36.4292H105.699C105.066 36.4292 104.476 36.7455 104.125 37.2707L100.134 43.2354L96.1404 37.2688C95.789 36.7436 95.1989 36.429 94.5663 36.429H83.151C81.947 36.429 80.9667 35.4487 80.9667 34.2447V7.8648C80.9665 6.66082 81.9468 5.68241 83.1508 5.68241H117.136C118.34 5.68241 119.319 6.66082 119.319 7.8648V34.2449Z" fill="#B5B5B5"/>
<path d="M26.695 22.0833H45.0573C45.5808 22.0833 46.0043 21.6598 46.0043 21.1363C46.0043 20.6128 45.5808 20.1893 45.0573 20.1893H26.695C26.1715 20.1893 25.748 20.6128 25.748 21.1363C25.748 21.6598 26.1717 22.0833 26.695 22.0833ZM26.695 46.6085H62.9499C63.4734 46.6085 63.8969 46.185 63.8969 45.6615C63.8969 45.138 63.4734 44.7145 62.9499 44.7145H26.695C26.1715 44.7145 25.748 45.138 25.748 45.6615C25.748 46.185 26.1717 46.6085 26.695 46.6085ZM26.695 30.2583H62.9499C63.4734 30.2583 63.8969 29.8348 63.8969 29.3113C63.8969 28.7878 63.4734 28.3643 62.9499 28.3643H26.695C26.1715 28.3643 25.748 28.7878 25.748 29.3113C25.748 29.8348 26.1717 30.2583 26.695 30.2583ZM26.695 54.7835H62.9499C63.4734 54.7835 63.8969 54.36 63.8969 53.8365C63.8969 53.313 63.4734 52.8895 62.9499 52.8895H26.695C26.1715 52.8895 25.748 53.313 25.748 53.8365C25.748 54.36 26.1717 54.7835 26.695 54.7835ZM26.695 38.4333H62.9499C63.4734 38.4333 63.8969 38.0098 63.8969 37.4863C63.8969 36.9628 63.4734 36.5393 62.9499 36.5393H26.695C26.1715 36.5393 25.748 36.9628 25.748 37.4863C25.748 38.0098 26.1717 38.4333 26.695 38.4333ZM26.695 62.9585H62.9499C63.4734 62.9585 63.8969 62.535 63.8969 62.0115C63.8969 61.488 63.4734 61.0645 62.9499 61.0645H26.695C26.1715 61.0645 25.748 61.488 25.748 62.0115C25.748 62.535 26.1717 62.9585 26.695 62.9585ZM26.695 13.9083H45.0573C45.5808 13.9083 46.0043 13.4848 46.0043 12.9613C46.0043 12.4378 45.5808 12.0143 45.0573 12.0143H26.695C26.1715 12.0143 25.748 12.4378 25.748 12.9613C25.748 13.4848 26.1717 13.9083 26.695 13.9083ZM26.695 71.1335H62.9499C63.4734 71.1335 63.8969 70.71 63.8969 70.1865C63.8969 69.663 63.4734 69.2395 62.9499 69.2395H26.695C26.1715 69.2395 25.748 69.663 25.748 70.1865C25.748 70.71 26.1717 71.1335 26.695 71.1335ZM95.232 92.6954C95.0424 92.6045 82.5278 86.653 82.2463 86.653H40.2837C38.0641 86.653 36.259 88.4581 36.259 90.6776V96.4556C36.259 98.6751 38.0641 100.48 40.2837 100.48C50.9034 100.481 71.6356 100.482 82.2463 100.482C82.6914 100.482 82.4164 100.466 95.2338 94.4064C95.563 94.2492 95.774 93.9162 95.774 93.5501C95.774 93.1856 95.563 92.8526 95.232 92.6954ZM81.2994 98.5882L47.0087 98.5869V88.5471H81.2994V98.5882ZM38.153 96.4556V90.6776C38.153 89.5032 39.1092 88.5469 40.2837 88.5469H45.1147V98.5865L40.2837 98.5863C39.1092 98.5863 38.153 97.6301 38.153 96.4556ZM83.1933 89.0962L88.2941 91.5089C87.8729 92.8517 87.8742 94.2662 88.2971 95.6089L83.1933 98.0369V89.0962ZM90.0081 94.7946C89.7963 93.9799 89.7958 93.1337 90.0066 92.3191L92.6168 93.5537L90.0081 94.7946ZM113.874 16.7954H86.4077C85.8842 16.7954 85.4607 17.2189 85.4607 17.7424C85.4607 18.2659 85.8842 18.6893 86.4077 18.6893H113.874C114.397 18.6893 114.821 18.2659 114.821 17.7424C114.821 17.2189 114.397 16.7954 113.874 16.7954ZM113.874 23.4132H86.4077C85.8842 23.4132 85.4607 23.8367 85.4607 24.3602C85.4607 24.8837 85.8842 25.3071 86.4077 25.3071H113.874C114.397 25.3071 114.821 24.8837 114.821 24.3602C114.821 23.8367 114.397 23.4132 113.874 23.4132ZM113.874 10.1797H86.4077C85.8842 10.1797 85.4607 10.6032 85.4607 11.1267C85.4607 11.6501 85.8842 12.0736 86.4077 12.0736H113.874C114.397 12.0736 114.821 11.6501 114.821 11.1267C114.821 10.6032 114.397 10.1797 113.874 10.1797ZM113.874 30.0308H86.4077C85.8842 30.0308 85.4607 30.4543 85.4607 30.9778C85.4607 31.5013 85.8842 31.9248 86.4077 31.9248H113.874C114.397 31.9248 114.821 31.5013 114.821 30.9778C114.821 30.4543 114.397 30.0308 113.874 30.0308Z" fill="#B5B5B5"/>
</svg>
