<svg width="158" height="113" viewBox="0 0 158 113" fill="none" xmlns="http://www.w3.org/2000/svg">
<path d="M127.906 0.00262866C116.886 0.00262866 107.967 8.88392 107.967 19.8647V28.9168H47.4V11.4222C47.4 9.48301 45.7884 7.88543 43.845 7.88543H3.555C1.6116 7.88543 0 9.48301 0 11.4222V35.8799C0 37.8191 1.6116 39.4166 3.555 39.4166H18.4333V45.7281C15.8897 46.8357 13.7251 48.6596 12.205 50.9765C10.6848 53.2933 9.87512 56.0023 9.87512 58.7716C9.87512 61.5408 10.6848 64.2498 12.205 66.5667C13.7251 68.8835 15.8897 70.7075 18.4333 71.815V97.3106H11.85C11.5008 97.3106 11.1659 97.449 10.919 97.6954C10.6721 97.9418 10.5333 98.2759 10.5333 98.6244C10.533 100.513 10.9056 102.383 11.6298 104.127C12.354 105.872 13.4157 107.457 14.7541 108.792C16.0926 110.127 17.6815 111.186 19.4302 111.908C21.1789 112.63 23.0531 113.001 24.9456 113H127.788C129.68 113.001 131.554 112.63 133.303 111.908C135.051 111.186 136.64 110.128 137.978 108.793C139.317 107.458 140.378 105.873 141.103 104.129C141.827 102.385 142.2 100.515 142.2 98.627C142.2 98.2786 142.061 97.9444 141.814 97.698C141.567 97.4516 141.233 97.3132 140.883 97.3132H134.3V39.7267H138.06C149.081 39.7267 158 30.8454 158 19.8673C158 8.88392 149.081 0.00525482 138.06 0.00525482L127.906 0.00262866ZM127.906 2.63023H138.06C140.333 2.61912 142.586 3.05707 144.688 3.91883C146.791 4.78058 148.702 6.04909 150.31 7.65123C151.919 9.25336 153.194 11.1574 154.062 13.2536C154.93 15.3498 155.373 17.5967 155.367 19.8647C155.373 22.1324 154.929 24.379 154.061 26.4749C153.193 28.5708 151.918 30.4746 150.31 32.0764C148.701 33.6783 146.79 34.9465 144.688 35.8081C142.586 36.6697 140.333 37.1076 138.06 37.0965H131.293C127.588 37.0965 125.073 37.9294 121.965 41.0221L110.6 52.1448V19.862C110.594 17.5943 111.037 15.3477 111.905 13.2518C112.773 11.1559 114.048 9.25215 115.657 7.6503C117.266 6.04845 119.177 4.78017 121.279 3.91858C123.381 3.05699 125.634 2.61913 127.906 2.63023ZM68.4403 3.37384C67.44 3.37463 66.4623 3.67103 65.6306 4.22565C64.7989 4.78026 64.1505 5.56824 63.7671 6.49017C63.3837 7.41211 63.2826 8.42669 63.4765 9.40591C63.6703 10.3851 64.1505 11.2851 64.8564 11.9924L70.1757 17.2739C70.4224 17.5185 70.7561 17.6559 71.104 17.6559C71.4518 17.6559 71.7855 17.5185 72.0322 17.2739L73.3568 15.9469L77.3436 11.9924C79.3186 10.0322 79.3186 6.81074 77.3436 4.85318C75.6267 3.14524 73.0671 3.21093 71.1053 4.47218C70.2652 3.93089 69.4015 3.37384 68.4403 3.37384ZM131.959 4.60093C131.61 4.60093 131.275 4.73935 131.028 4.98573C130.781 5.23212 130.642 5.56629 130.642 5.91473V9.95335C130.642 9.96211 130.642 9.97087 130.642 9.97963C130.642 10.1925 130.469 10.6733 130.005 11.2934C129.544 11.9135 128.857 12.6335 128.135 13.3929C127.095 14.4833 125.902 15.65 125.299 17.0925H123.854V13.1091C123.854 12.7607 123.715 12.4265 123.468 12.1801C123.221 11.9337 122.886 11.7953 122.537 11.7953H116.525C116.176 11.7953 115.841 11.9337 115.594 12.1801C115.347 12.4265 115.208 12.7607 115.208 13.1091V33.5045C115.208 33.853 115.347 34.1872 115.594 34.4335C115.841 34.6799 116.176 34.8183 116.525 34.8183H122.537C122.886 34.8183 123.221 34.6799 123.468 34.4335C123.715 34.1872 123.854 33.853 123.854 33.5045V31.6915H124.981C125.581 32.6085 126.561 33.2576 127.727 33.2576H142.874C144.67 33.2576 145.816 31.5811 145.816 29.8863C145.816 29.3766 145.681 28.8878 145.486 28.4254C146.308 27.7948 146.861 26.8147 146.861 25.719C146.861 25.1724 146.695 24.6627 146.466 24.1897C147.314 23.5748 147.904 22.621 147.904 21.5069C147.904 20.7108 147.583 19.996 147.114 19.4127C147.58 18.8346 147.904 18.1305 147.904 17.3369C147.897 16.4457 147.538 15.593 146.906 14.9635C146.274 14.334 145.418 13.9784 144.525 13.9736H139.248C138.869 13.9758 138.493 14.0433 138.137 14.1733C137.966 13.5996 137.738 13.0442 137.457 12.5153V9.65644C137.457 6.81863 134.982 4.60619 132.077 4.60619H131.959V4.60093ZM73.7597 5.98568C74.3811 5.98568 75.0026 6.22742 75.4871 6.71089C75.7171 6.93222 75.9001 7.19753 76.025 7.49098C76.15 7.78443 76.2144 8.1 76.2144 8.41884C76.2144 8.73767 76.15 9.05324 76.025 9.34669C75.9001 9.64014 75.7171 9.90545 75.4871 10.1268L71.5003 14.0839L71.1 14.486L66.7129 10.1294C66.4825 9.90804 66.2992 9.64257 66.174 9.34888C66.0488 9.05518 65.9842 8.73931 65.9842 8.42015C65.9842 8.10099 66.0488 7.78511 66.174 7.49142C66.2992 7.19773 66.4825 6.93226 66.7129 6.71089C66.9392 6.48421 67.2086 6.30474 67.5052 6.18294C67.8017 6.06114 68.1196 5.99944 68.4403 6.00144C69.0671 6.00144 69.6885 6.23004 70.1731 6.71089C70.4199 6.95639 70.7541 7.09425 71.1026 7.09425C71.4511 7.09425 71.7854 6.95639 72.0322 6.71089C72.2581 6.48242 72.527 6.30073 72.8234 6.17628C73.1199 6.05182 73.438 5.98704 73.7597 5.98568ZM133.276 7.66997C134.155 8.0825 134.824 8.74729 134.824 9.65644V12.7045C134.823 12.7873 134.83 12.87 134.845 12.9514L134.866 13.0329C134.892 13.1768 134.942 13.3153 135.014 13.4428C135.972 15.1166 136.143 17.5025 135.406 19.4075C134.669 21.3125 133.297 22.3057 131.964 22.3057H126.216C125.866 22.3057 125.532 22.4441 125.285 22.6905C125.038 22.9369 124.899 23.2711 124.899 23.6195C124.899 23.9679 125.038 24.3021 125.285 24.5485C125.532 24.7949 125.866 24.9333 126.216 24.9333H131.964C133.315 24.9333 134.561 24.4183 135.598 23.5591L135.601 23.5696C135.13 24.1687 134.824 24.9175 134.824 25.719C134.824 26.4705 135.106 27.1589 135.525 27.7422C135.09 28.3518 134.824 29.1086 134.824 29.8863C134.824 30.1412 134.898 30.3856 134.948 30.63H127.727C127.319 30.63 127.011 30.3304 127.011 29.8863C127.014 29.7105 126.981 29.5359 126.915 29.3728C126.849 29.2097 126.751 29.0616 126.626 28.9371C126.502 28.8126 126.354 28.7143 126.19 28.6481C126.027 28.5819 125.852 28.549 125.676 28.5515C125.477 28.5543 125.281 28.6021 125.103 28.6913C124.925 28.7805 124.77 28.9088 124.649 29.0665H123.854V19.7201H125.154C125.319 19.9441 125.551 20.1101 125.816 20.1944C126.081 20.2787 126.367 20.2769 126.631 20.1893C126.895 20.1018 127.125 19.9329 127.287 19.7069C127.449 19.481 127.535 19.2097 127.532 18.9319C127.532 18.1699 128.615 16.7037 130.042 15.2033C130.753 14.4544 131.503 13.6898 132.12 12.8647C132.509 12.3392 132.644 11.6639 132.857 11.0307C132.988 10.9094 133.093 10.7627 133.165 10.5996C133.238 10.4366 133.276 10.2605 133.278 10.0821L133.276 7.66997ZM3.555 10.513H43.845C44.3822 10.513 44.7667 10.8967 44.7667 11.4222V41.8446L39.1234 37.0965C38.8859 36.8976 38.5856 36.7887 38.2755 36.789H3.555C3.43349 36.7942 3.31223 36.7742 3.19879 36.7305C3.08535 36.6867 2.98216 36.6201 2.89568 36.5348C2.80919 36.4495 2.74125 36.3473 2.69612 36.2346C2.65098 36.1219 2.62961 36.0012 2.63333 35.8799V11.4222C2.63333 10.8967 3.0178 10.513 3.555 10.513ZM41.4803 12.4627C41.2509 12.4636 41.0258 12.5243 40.8272 12.6388L23.7 21.5122L6.57807 12.6388C6.38469 12.5315 6.16733 12.4745 5.94607 12.4732V12.4785C5.6498 12.4791 5.3624 12.5794 5.13033 12.7631C4.89826 12.9469 4.73508 13.2034 4.66717 13.4911C4.59926 13.7789 4.6306 14.0811 4.75611 14.3489C4.88162 14.6166 5.09397 14.8344 5.35883 14.9668L23.0943 24.1582C23.2815 24.2549 23.4892 24.3054 23.7 24.3054C23.9108 24.3054 24.1185 24.2549 24.3057 24.1582L42.0412 14.9668C42.3129 14.8401 42.5331 14.6247 42.6655 14.3562C42.7978 14.0876 42.8342 13.782 42.7688 13.4899C42.7034 13.1979 42.54 12.9369 42.3057 12.7501C42.0714 12.5633 41.7802 12.4619 41.4803 12.4627ZM117.842 14.4229H121.22V32.1907H117.842V14.4229ZM139.248 16.5986H144.525C144.624 16.5937 144.723 16.6095 144.815 16.645C144.908 16.6805 144.992 16.7348 145.062 16.8046C145.132 16.8744 145.187 16.958 145.223 17.0501C145.259 17.1422 145.275 17.2408 145.27 17.3395C145.275 17.4383 145.258 17.5368 145.222 17.6289C145.186 17.7209 145.131 17.8045 145.061 17.8744C144.991 17.9443 144.907 17.9989 144.815 18.0349C144.723 18.0708 144.624 18.0872 144.525 18.0832H139.248C139.149 18.0872 139.05 18.0708 138.958 18.0349C138.866 17.9989 138.782 17.9443 138.712 17.8744C138.642 17.8045 138.587 17.7209 138.551 17.6289C138.515 17.5368 138.499 17.4383 138.503 17.3395C138.498 17.2408 138.514 17.1422 138.55 17.0501C138.586 16.958 138.641 16.8744 138.711 16.8046C138.781 16.7348 138.865 16.6805 138.958 16.645C139.05 16.6095 139.149 16.5937 139.248 16.5986ZM138.174 20.7607H144.557C144.965 20.7607 145.27 21.0629 145.27 21.5069C145.27 21.951 144.965 22.2426 144.557 22.2426H138.171C137.763 22.2426 137.455 21.951 137.455 21.5069C137.455 21.0602 137.765 20.7607 138.174 20.7607ZM137.974 24.9806H143.717C143.933 24.9806 144.228 25.2066 144.228 25.719C144.228 26.2313 143.933 26.4626 143.717 26.4626H137.974C137.755 26.4626 137.457 26.234 137.457 25.719C137.457 25.2066 137.755 24.9806 137.974 24.9806ZM137.765 29.1427H142.874C142.877 29.1427 143.182 29.303 143.182 29.8863C143.182 30.4697 142.877 30.63 142.874 30.63H137.765C137.763 30.63 137.457 30.4723 137.457 29.8863C137.457 29.303 137.763 29.1427 137.765 29.1427ZM47.4 31.5444H107.967V36.8416H47.4V31.5444ZM21.0667 39.4166H26.3333V44.5484H24.1213C23.0706 44.5484 22.0515 44.6666 21.0667 44.8821V39.4166ZM28.9667 39.4166H37.7936L45.2354 45.6782C45.4274 45.8395 45.6615 45.9426 45.9102 45.9755C46.159 46.0084 46.412 45.9697 46.6394 45.864C46.8669 45.7583 47.0593 45.5899 47.194 45.3787C47.3288 45.1675 47.4002 44.9222 47.4 44.6718V39.4692H107.967V55.269C107.966 55.5279 108.042 55.7812 108.186 55.9971C108.329 56.2129 108.533 56.3817 108.772 56.4822C109.011 56.5827 109.275 56.6105 109.53 56.562C109.785 56.5135 110.02 56.3909 110.205 56.2097L123.767 42.9403V89.3936H104.017V88.0273C104.017 86.5952 102.819 85.3997 101.383 85.3997H95.2055C94.7867 83.8904 94.1882 82.4366 93.4228 81.0694L97.7783 76.7207C98.2663 76.225 98.5396 75.5579 98.5396 74.863C98.5396 74.1681 98.2663 73.501 97.7783 73.0053L94.0548 69.2899C93.5576 68.8036 92.8892 68.5312 92.193 68.5312C91.4968 68.5312 90.8284 68.8036 90.3312 69.2899L85.9678 73.6412C84.6004 72.8701 83.1452 72.2658 81.6333 71.8412V65.6927C81.6333 64.2606 80.4352 63.0651 79 63.0651H73.7333C72.2982 63.0651 71.1 64.2606 71.1 65.6927V71.857C69.5874 72.2759 68.1304 72.874 66.7603 73.6385L62.4021 69.2899C61.9049 68.8036 61.2365 68.5312 60.5403 68.5312C59.8442 68.5312 59.1757 68.8036 58.6786 69.2899L54.9577 73.0079C54.4697 73.5037 54.1963 74.1708 54.1963 74.8656C54.1963 75.5605 54.4697 76.2276 54.9577 76.7233L59.3185 81.0773C58.5482 82.4422 57.9444 83.8942 57.5199 85.4023H51.35C49.9148 85.4023 48.7167 86.5979 48.7167 88.0299V89.3963H28.9667V73.0079C31.1629 73.0158 31.837 73.205 33.7251 75.0863C33.7286 75.0864 33.7321 75.0864 33.7356 75.0863L43.1893 84.3565C43.3738 84.536 43.607 84.6575 43.86 84.706C44.113 84.7545 44.3747 84.7279 44.6127 84.6294C44.8507 84.531 45.0545 84.365 45.1989 84.1521C45.3433 83.9392 45.4219 83.6887 45.425 83.4316V58.7742C45.426 56.9066 45.0583 55.0571 44.3429 53.3314C43.6274 51.6057 42.5783 50.0375 41.2553 48.7164C39.9323 47.3954 38.3615 46.3473 36.6325 45.6321C34.9036 44.917 33.0503 44.5487 31.1787 44.5484H28.9667V39.4166ZM131.29 39.732H131.667V97.3106H21.0667V72.6637C22.0515 72.8765 23.0706 73 24.1213 73H26.3333V90.7074C26.3333 91.0559 26.4721 91.39 26.719 91.6364C26.9659 91.8828 27.3008 92.0212 27.65 92.0212H125.083C125.433 92.0212 125.767 91.8828 126.014 91.6364C126.261 91.39 126.4 91.0559 126.4 90.7074V40.7935C127.796 39.9395 129.091 39.7267 131.29 39.7267V39.732ZM24.1213 47.1681V47.176H31.1787C37.6356 47.176 42.7917 52.3261 42.7917 58.7742V80.2942L35.5869 73.2207H35.5816C33.3828 71.0293 31.4446 70.3619 28.8271 70.3619H24.1213C22.5935 70.3685 21.0796 70.073 19.667 69.4923C18.2543 68.9117 16.971 68.0574 15.8912 66.979C14.8114 65.9005 13.9564 64.6192 13.3758 63.2091C12.7951 61.7991 12.5003 60.2881 12.5083 58.7637C12.5003 57.2392 12.7951 55.7283 13.3758 54.3182C13.9564 52.9081 14.8114 51.6268 15.8912 50.5484C16.971 49.4699 18.2543 48.6157 19.667 48.035C21.0796 47.4544 22.5935 47.1615 24.1213 47.1681ZM31.1892 50.7495C30.8418 50.7391 30.4944 50.7699 30.1543 50.8415V50.8467C29.3966 51 28.6844 51.3249 28.0726 51.7965C27.4607 52.268 26.9657 52.8735 26.6256 53.5663C26.3913 54.0498 26.4044 54.6094 26.3333 55.1455C25.4433 54.9826 24.5427 54.8039 23.6947 54.3835C22.6197 53.8575 21.6546 53.1326 20.8507 52.2472L20.5005 51.8662C20.3569 51.712 20.1782 51.5945 19.9795 51.5236C19.7808 51.4527 19.568 51.4305 19.3589 51.4588C19.1498 51.4871 18.9506 51.5652 18.7781 51.6864C18.6055 51.8076 18.4647 51.9684 18.3675 52.1553L18.2727 52.3234C17.6881 53.4533 17.6144 54.6357 17.9304 55.8392C17.983 56.0494 18.1937 56.1676 18.2701 56.3673C18.2595 56.3673 18.2332 56.3936 18.2332 56.3936L18.0489 56.5723C18.0489 56.5723 17.9488 56.701 17.9146 56.7562C17.857 56.8532 17.8127 56.9575 17.7829 57.0663C17.6881 57.4 17.7302 57.4604 17.7302 57.4972C17.7302 58.3722 17.9172 58.8951 18.2569 59.5809C18.486 60.0407 19.0311 60.1957 19.3787 60.561C19.3602 60.5843 19.34 60.6063 19.3181 60.6267L19.1338 61.3046C19.1338 61.8406 19.2207 61.8038 19.2602 61.9063C19.3971 62.1949 19.5501 62.4756 19.7184 62.7471C20.0528 63.2832 20.7349 63.3961 21.2405 63.7587C20.5295 63.9952 19.7026 64.2317 19.0759 64.2159L18.4886 64.1897C18.1875 64.1771 17.8911 64.2681 17.6491 64.4473C17.407 64.6266 17.234 64.8833 17.1587 65.1745C17.0835 65.4658 17.1108 65.774 17.2359 66.0476C17.361 66.3213 17.5764 66.5438 17.8461 66.678L18.5992 67.059C19.0811 67.2955 19.6868 67.5609 20.1397 67.7212C20.8929 67.9813 21.9804 68.2336 22.7467 68.3203C22.7696 68.3209 22.7924 68.3209 22.8152 68.3203C22.8512 68.3217 22.8872 68.3217 22.9232 68.3203C23.1417 68.3203 23.5499 68.3518 24.0713 68.3518C28.3004 68.3912 32.0371 66.4205 34.2939 62.9389C35.5711 60.9682 36.2952 58.6034 36.3058 56.3384L36.1267 56.475C36.656 56.0678 37.2195 55.4897 37.6593 54.9405L37.8963 54.6436C38.0104 54.5005 38.0933 54.3351 38.1397 54.1582C38.1861 53.9812 38.195 53.7966 38.1657 53.616C38.1365 53.4355 38.0698 53.263 37.9699 53.1096C37.87 52.9563 37.7391 52.8254 37.5856 52.7255C37.5987 52.686 37.6093 52.6729 37.6224 52.5757C37.6289 52.5189 37.6341 52.4619 37.6382 52.4049L37.6014 52.0712L37.4987 51.7953L37.2485 51.4458L36.8008 51.1568L36.3216 51.0674L36.074 51.0937C36.074 51.0937 35.9977 51.12 35.9713 51.12C35.9187 51.1463 35.8923 51.1436 35.8686 51.1463C35.8212 51.1725 35.7896 51.1804 35.7659 51.1909C35.7133 51.2172 35.6711 51.2303 35.6211 51.2514C35.5067 51.304 35.3934 51.3592 35.2814 51.4169C34.9253 51.5735 34.5594 51.707 34.1859 51.8163C33.3136 51.1749 32.2714 50.8039 31.1892 50.7495ZM30.6941 53.3666V53.3771C31.4051 53.2299 32.1925 53.4034 32.8403 53.9263C33.0141 54.0682 33.1352 54.2153 33.5144 54.3677H33.5223C33.5223 54.394 33.5118 54.394 33.5144 54.4071C33.5197 54.5963 33.6988 54.8433 33.8436 55.0798C33.7431 55.2674 33.6898 55.4766 33.6882 55.6894L33.683 56.3069C33.683 57.999 33.0826 59.9803 32.0845 61.52C30.2807 64.3 27.5183 65.7689 24.0845 65.7347C24.0801 65.7347 24.0757 65.7347 24.0713 65.7347C23.8185 65.7347 23.7132 65.7347 23.5051 65.7084C23.7079 65.5954 23.9212 65.4903 24.1003 65.3747C24.2662 65.267 24.4163 65.1671 24.5585 65.0515C24.6447 64.9841 24.7256 64.9103 24.8007 64.8308C24.8481 64.7783 24.9061 64.7178 24.9798 64.5996C25.1154 64.3827 25.1883 64.1326 25.1905 63.877L25.1615 63.588C25.1615 63.588 25.1141 63.4172 25.0825 63.3436C25.0302 63.2196 24.9592 63.1044 24.8718 63.002C24.7785 62.8866 24.6652 62.7887 24.5374 62.713C24.3636 62.6 24.2556 62.579 24.1582 62.5474C23.975 62.4844 23.7876 62.4344 23.5973 62.3977C23.5938 62.3976 23.5903 62.3976 23.5868 62.3977C23.2892 62.3451 23.1154 62.0902 22.8415 61.9221C23.018 61.7539 23.226 61.6751 23.2787 61.2993C23.308 61.078 23.2836 60.853 23.2075 60.6431C23.1314 60.4332 23.0059 60.2446 22.8415 60.0933C22.4755 59.7543 22.3043 59.7464 22.0779 59.6676C21.6671 59.5231 21.4933 59.1894 21.2352 58.9318C21.5249 58.7873 22.0226 58.2618 22.0068 57.6811C22.0068 57.6811 21.9804 57.4052 21.9515 57.3185C21.9251 57.2292 21.8935 57.174 21.8698 57.1214C21.8172 57.0163 21.7724 56.9559 21.7355 56.906C21.6799 56.8278 21.6182 56.754 21.5512 56.6852C21.4452 56.5774 21.3307 56.4781 21.2089 56.3883C21.2097 56.3883 21.208 56.3883 21.2089 56.3883C21.043 56.2648 20.619 55.6526 20.49 55.2033C21.1483 55.7209 21.7408 56.3332 22.5176 56.722C23.9028 57.4184 25.3906 57.8519 26.889 57.9833L27.3682 58.0306C27.5577 58.0477 27.7487 58.0236 27.9279 57.9601C28.1072 57.8965 28.2705 57.7949 28.4067 57.6623C28.5428 57.5297 28.6486 57.3692 28.7166 57.1919C28.7846 57.0146 28.8133 56.8247 28.8008 56.6353L28.7665 56.0336C28.7127 55.5757 28.7932 55.112 28.9983 54.6988C29.1587 54.3612 29.3953 54.0652 29.6895 53.8341C29.9837 53.6029 30.3276 53.4429 30.6941 53.3666ZM21.0403 62.0193C21.1114 62.0456 21.1325 62.1349 21.2062 62.1612C21.2905 62.1927 21.3168 62.282 21.0482 62.0298H21.0403V62.0193ZM73.7333 65.6927H79V72.6978C79.0003 72.9973 79.103 73.2876 79.2912 73.5208C79.4794 73.754 79.7418 73.916 80.0349 73.9801C82.0058 74.4141 83.8842 75.1925 85.5833 76.2793C85.8357 76.4412 86.1359 76.5123 86.4342 76.4807C86.7326 76.4492 87.0112 76.3169 87.2239 76.1058L92.193 71.1476L95.9165 74.863L90.958 79.8108C90.7469 80.0221 90.6142 80.2987 90.5816 80.5953C90.5491 80.8919 90.6186 81.1907 90.7789 81.4425C91.8586 83.1426 92.6354 85.0213 93.062 86.992C93.1257 87.285 93.2879 87.5474 93.5216 87.7357C93.7554 87.924 94.0466 88.0269 94.3471 88.0273H101.383V89.3936H88.0876C87.4451 83.4763 82.4628 78.8307 76.3667 78.8307C70.2705 78.8307 65.2882 83.4763 64.6457 89.3936H51.35V88.0273H58.3705C58.6702 88.0272 58.9609 87.925 59.1945 87.7377C59.4282 87.5505 59.5908 87.2892 59.6555 86.9973C60.0901 85.0297 60.8702 83.1545 61.9597 81.4583C62.122 81.2065 62.1932 80.9069 62.1616 80.6092C62.13 80.3116 61.9974 80.0336 61.7859 79.8213L56.8168 74.863L60.5403 71.1476L65.4989 76.0953C65.7113 76.3051 65.9889 76.4366 66.2861 76.4681C66.5833 76.4996 66.8824 76.4293 67.1342 76.2688C68.8381 75.1883 70.7201 74.4171 72.6932 73.9906C72.9864 73.9278 73.2493 73.767 73.4384 73.5347C73.6276 73.3025 73.7316 73.0128 73.7333 72.7136V65.6927ZM143.98 69.0639C142.98 69.0647 142.002 69.3611 141.17 69.9157C140.339 70.4703 139.69 71.2583 139.307 72.1802C138.924 73.1021 138.822 74.1167 139.016 75.096C139.21 76.0752 139.69 76.9752 140.396 77.6824L145.713 82.9639C145.96 83.2086 146.293 83.3459 146.641 83.3459C146.989 83.3459 147.323 83.2086 147.569 82.9639L152.883 77.6824C154.856 75.7222 154.856 72.5008 152.883 70.5432C151.167 68.8353 148.607 68.901 146.642 70.1622C145.805 69.6209 144.941 69.0639 143.98 69.0639ZM149.299 71.681C149.918 71.681 150.54 71.9227 151.027 72.4062C151.258 72.6269 151.441 72.8919 151.566 73.1851C151.692 73.4784 151.756 73.794 151.756 74.1128C151.756 74.4317 151.692 74.7472 151.566 75.0405C151.441 75.3338 151.258 75.5987 151.027 75.8194L146.64 80.176L142.253 75.8194C142.022 75.5987 141.838 75.3336 141.712 75.04C141.587 74.7465 141.522 74.4307 141.522 74.1115C141.522 73.7923 141.587 73.4765 141.712 73.183C141.838 72.8894 142.022 72.6243 142.253 72.4036C142.479 72.1771 142.749 71.9978 143.045 71.876C143.342 71.7542 143.659 71.6924 143.98 71.6941C144.607 71.6941 145.228 71.9227 145.713 72.4036C145.96 72.6483 146.293 72.7856 146.641 72.7856C146.989 72.7856 147.323 72.6483 147.569 72.4036C147.795 72.1756 148.064 71.9944 148.361 71.8704C148.657 71.7464 148.978 71.682 149.299 71.681ZM76.3667 81.4583C81.004 81.4583 84.6617 84.9004 85.32 89.3411H67.4133C68.0717 84.9004 71.7294 81.4583 76.3667 81.4583ZM13.43 99.9408H63.2V102.116C63.2 104.734 65.2961 106.917 67.9005 106.917H84.8328C87.4398 106.917 89.5333 104.734 89.5333 102.116V99.9408H139.303C138.629 105.811 133.868 110.372 127.788 110.372H24.9456C18.8626 110.372 14.1041 105.811 13.43 99.9408ZM65.8333 99.9408H86.9V102.116C86.9 103.367 85.9783 104.29 84.8328 104.29H67.9005C66.755 104.29 65.8333 103.367 65.8333 102.116V99.9408Z" fill="#B5B5B5"/>
</svg>
