<svg width="126" height="118" viewBox="0 0 126 118" fill="none" xmlns="http://www.w3.org/2000/svg">
<path d="M118.262 92.4609H6.73828C3.02734 92.4609 0 89.4336 0 85.7227V6.73828C0 3.02734 3.02734 0 6.73828 0H118.281C121.992 0 125.02 3.02734 125.02 6.73828V85.7227C125 89.4336 121.973 92.4609 118.262 92.4609ZM6.73828 1.93359C4.08203 1.93359 1.93359 4.08203 1.93359 6.73828V85.7227C1.93359 88.3789 4.08203 90.5273 6.73828 90.5273H118.281C120.938 90.5273 123.086 88.3789 123.086 85.7227V6.73828C123.086 4.08203 120.938 1.93359 118.281 1.93359H6.73828Z" fill="#B5B5B5"/>
<path d="M86.8164 117.832H38.1836C37.6562 117.832 37.2266 117.402 37.2266 116.875V111.797C37.2266 111.426 37.4414 111.094 37.7734 110.918L45.3516 107.324V91.4844C45.3516 90.957 45.7812 90.5273 46.3086 90.5273C46.8359 90.5273 47.2656 90.957 47.2656 91.4844V107.93C47.2656 108.301 47.0508 108.633 46.7188 108.809L39.1406 112.402V115.918H85.8398V112.402L78.2617 108.809C77.9297 108.652 77.7148 108.32 77.7148 107.93V91.4844C77.7148 90.957 78.1445 90.5273 78.6719 90.5273C79.1992 90.5273 79.6289 90.957 79.6289 91.4844V107.324L87.207 110.918C87.5391 111.074 87.7539 111.406 87.7539 111.797V116.875C87.7734 117.402 87.3438 117.832 86.8164 117.832Z" fill="#B5B5B5"/>
<path d="M78.6914 108.906H46.3086C45.7812 108.906 45.3516 108.477 45.3516 107.949C45.3516 107.422 45.7812 106.992 46.3086 106.992H78.6719C79.1992 106.992 79.6289 107.422 79.6289 107.949C79.6484 108.477 79.2188 108.906 78.6914 108.906ZM124.043 76.4063H0.957031C0.429687 76.4063 0 75.9766 0 75.4297C0 74.9023 0.429687 74.4727 0.957031 74.4727H124.043C124.57 74.4727 125 74.9023 125 75.4297C125 75.9766 124.57 76.4063 124.043 76.4063ZM62.5 88.5156C59.707 88.5156 57.4609 86.25 57.4609 83.4766C57.4609 80.6836 59.7266 78.4375 62.5 78.4375C65.2734 78.4375 67.5391 80.7031 67.5391 83.4766C67.5391 86.25 65.2734 88.5156 62.5 88.5156ZM62.5 80.332C60.7813 80.332 59.375 81.7383 59.375 83.457C59.375 85.1758 60.7813 86.582 62.5 86.582C64.2187 86.582 65.625 85.1758 65.625 83.457C65.625 81.7383 64.2187 80.332 62.5 80.332ZM75.6836 33.0859C75.332 33.0859 74.9609 32.9492 74.6875 32.6758L63.0469 21.0352C62.7734 20.7813 62.6367 20.4102 62.6367 20.0391C62.6367 19.668 62.793 19.3164 63.0469 19.043L65.2539 16.8359C65.8008 16.2891 66.6992 16.2891 67.2266 16.8359L78.8867 28.4961C79.4336 29.043 79.4336 29.9414 78.8867 30.4688L76.6797 32.6758C76.3867 32.9492 76.0352 33.0859 75.6836 33.0859ZM64.7656 20.0391L75.6836 30.957L77.1484 29.4922L66.2305 18.5742L64.7656 20.0391Z" fill="#B5B5B5"/>
<path d="M77.3252 29.2559C77.0713 29.2559 76.8369 29.1582 76.6416 28.9824C76.2705 28.6113 76.2705 28.0059 76.6416 27.6152L81.5635 22.6934L72.8135 13.9629L67.8916 18.8848C67.5205 19.2559 66.915 19.2559 66.5244 18.8848C66.1533 18.5137 66.1533 17.9082 66.5244 17.5176L71.5635 12.4785C72.2275 11.8145 73.3799 11.8145 74.0244 12.4785L83.0088 21.4629C83.3408 21.7949 83.5166 22.2246 83.5166 22.6934C83.5166 23.1621 83.3408 23.5918 83.0088 23.9238L77.9697 28.9629C77.833 29.1777 77.5791 29.2559 77.3252 29.2559Z" fill="#B5B5B5"/>
<path d="M75.001 26.9336C74.7471 26.9336 74.5127 26.8359 74.3174 26.6602C73.9463 26.2891 73.9463 25.6836 74.3174 25.293L87.3447 12.2656C88.458 11.1523 88.458 9.31641 87.3447 8.20313C86.2314 7.08984 84.3955 7.08984 83.2822 8.20313L70.2549 21.2305C69.8838 21.6016 69.2783 21.6016 68.8877 21.2305C68.5166 20.8594 68.5166 20.2539 68.8877 19.8633L81.915 6.83594C83.79 4.96094 86.8174 4.96094 88.6924 6.83594C90.5674 8.71094 90.5674 11.7383 88.6924 13.6133L75.665 26.6406C75.4893 26.8359 75.2354 26.9336 75.001 26.9336Z" fill="#B5B5B5"/>
<path d="M72.3636 24.3174C72.1097 24.3174 71.8753 24.2197 71.68 24.0439C71.3089 23.6729 71.3089 23.0674 71.68 22.6768L77.266 17.0908C77.637 16.7197 78.2425 16.7197 78.6331 17.0908C79.0042 17.4619 79.0042 18.0674 78.6331 18.458L73.0472 24.0439C72.8714 24.2197 72.6175 24.3174 72.3636 24.3174ZM40.7425 58.0674C39.9417 58.0674 39.1605 57.7549 38.555 57.1494C37.3245 55.9385 37.3441 53.9854 38.555 52.7354C39.9417 51.3096 41.0355 49.7471 41.641 48.3213C42.9105 45.2939 44.4339 42.9111 46.2894 41.0752L65.3519 22.0127C65.723 21.6416 66.3284 21.6416 66.7191 22.0127C67.0902 22.3838 67.0902 22.9893 66.7191 23.3799L47.6566 42.4424C45.9769 44.1221 44.6097 46.29 43.4183 49.083C42.7347 50.7236 41.4847 52.5205 39.9417 54.1025C39.4535 54.5908 39.4535 55.3525 39.9222 55.8213C40.391 56.29 41.1527 56.2705 41.641 55.8018C43.223 54.2588 45.0003 53.0088 46.6605 52.3252C49.4535 51.1533 51.641 49.7666 53.3011 48.0869L72.3636 29.0244C72.7347 28.6533 73.3402 28.6533 73.7308 29.0244C74.1214 29.3955 74.1019 30.001 73.7308 30.3916L54.6683 49.4541C52.8128 51.3096 50.4495 52.8135 47.4027 54.1025C45.9769 54.708 44.4144 55.8018 42.9886 57.1885C42.3441 57.7549 41.5433 58.0674 40.7425 58.0674ZM39.1995 70.9775C36.9144 70.9775 35.0003 69.1807 34.9027 66.876C34.805 64.7861 37.8714 60.5869 38.4964 59.7666C38.6722 59.5322 38.9652 59.376 39.2581 59.376C39.5706 59.376 39.8441 59.5322 40.0199 59.7666C40.5863 60.5283 43.3988 64.4346 43.4769 66.4658C43.5355 67.6182 43.1449 68.7119 42.3636 69.5713C41.5824 70.4307 40.5277 70.9189 39.3753 70.9775C39.3363 70.9775 39.2777 70.9775 39.1995 70.9775ZM39.2581 61.9932C37.9495 63.8877 36.7777 66.0166 36.8167 66.7783C36.8753 68.0869 38.1058 69.1221 39.3167 69.0439C39.9417 69.0049 40.5472 68.7314 40.9769 68.2627C41.4066 67.7939 41.6214 67.1885 41.6019 66.5439C41.5433 65.7041 40.3714 63.6533 39.2581 61.9932Z" fill="#B5B5B5"/>
<path d="M86.6807 15.2354C86.4268 15.2354 86.1924 15.1377 85.9971 14.9619L80.5674 9.53223C80.1963 9.16113 80.1963 8.55566 80.5674 8.16504C80.9385 7.79395 81.5439 7.79395 81.9346 8.16504L87.3643 13.5947C87.7354 13.9658 87.7354 14.5713 87.3643 14.9619C87.1689 15.1377 86.9346 15.2354 86.6807 15.2354Z" fill="#B5B5B5"/>
<path d="M53.4775 50.1377C53.2236 50.1377 52.9893 50.04 52.7939 49.8643L45.8408 42.9111C45.4697 42.54 45.4697 41.9346 45.8408 41.5439C46.2119 41.1729 46.8174 41.1729 47.208 41.5439L54.1611 48.4971C54.5322 48.8682 54.5322 49.4736 54.1611 49.8643C53.9854 50.04 53.7314 50.1377 53.4775 50.1377Z" fill="#B5B5B5"/>
</svg>
