<svg width="125" height="125" viewBox="0 0 125 125" fill="none" xmlns="http://www.w3.org/2000/svg">
<path fill-rule="evenodd" clip-rule="evenodd" d="M27.1243 64.7556L31.8097 70.025C34.1782 72.6931 38.2687 72.9324 40.9368 70.5617C43.6028 68.191 43.8441 64.1005 41.4735 61.4345L37.2278 56.6586C38.217 56.2707 39.2472 55.984 40.3054 55.8094L52.3808 53.8202C54.898 55.5508 58.3722 55.2965 60.6092 53.0594C63.1329 50.5378 63.1329 46.4388 60.6092 43.9172L39.0575 22.3654C36.5338 19.8417 32.4368 19.8417 29.9131 22.3654C27.6761 24.6025 27.4239 28.0767 29.1524 30.5939L27.1653 42.6693C26.6524 45.7814 25.1761 48.6543 22.9476 50.8849C21.0338 52.7965 19.1373 54.6931 19.1373 54.6931C16.6157 57.2147 16.6157 61.3137 19.1373 63.8353C21.3054 66.0013 24.6308 66.3094 27.1243 64.7556ZM33.411 58.8526C32.9498 59.2168 32.508 59.6091 32.0899 60.0272L30.2903 61.8289L35.0295 67.1608C35.8205 68.0509 37.1847 68.1306 38.0726 67.3397C38.9627 66.5509 39.0424 65.1867 38.2515 64.2987L33.411 58.8526ZM27.5166 52.219L30.5446 55.6263C30.023 56.0487 29.5209 56.5013 29.0424 56.9797C27.1287 58.8935 25.2342 60.7879 25.2342 60.7879C24.3937 61.6284 23.0274 61.6284 22.1868 60.7879C21.3442 59.9473 21.3442 58.5811 22.1868 57.7406C22.1868 57.7406 24.0812 55.8461 25.995 53.9323C26.536 53.3892 27.0446 52.8181 27.5166 52.219ZM34.2235 53.2771L29.8722 48.3827C30.6071 46.7986 31.1308 45.1133 31.4174 43.3698L32.883 34.4775L48.4972 50.0918L39.6049 51.5573C37.7256 51.8655 35.9131 52.4495 34.2235 53.2771ZM32.9627 28.4602C32.12 27.6196 32.12 26.2534 32.9627 25.4129C33.8032 24.5724 35.1696 24.5724 36.0101 25.4129L57.5618 46.9647C58.4023 47.8052 58.4023 49.1714 57.5618 50.012C56.7213 50.8525 55.3549 50.8525 54.5144 50.012L32.9627 28.4602Z" fill="#B5B5B5"/>
<path fill-rule="evenodd" clip-rule="evenodd" d="M58.8184 21.103L52.355 27.5686C51.5145 28.4091 51.5145 29.7755 52.355 30.616C53.1955 31.4565 54.5619 31.4565 55.4024 30.616L61.8658 24.1505C62.7084 23.31 62.7084 21.9436 61.8658 21.103C61.0252 20.2625 59.6589 20.2625 58.8184 21.103Z" fill="#B5B5B5"/>
<path fill-rule="evenodd" clip-rule="evenodd" d="M51.7244 24.7859V20.4755C51.7244 19.2858 50.7589 18.3203 49.5692 18.3203C48.3796 18.3203 47.4141 19.2858 47.4141 20.4755V24.7859C47.4141 25.9755 48.3796 26.941 49.5692 26.941C50.7589 26.941 51.7244 25.9755 51.7244 24.7859ZM58.1899 35.5618H62.4981C63.6878 35.5618 64.6533 34.5962 64.6533 33.4066C64.6533 32.2169 63.6878 31.2514 62.4981 31.2514H58.1899C57.0003 31.2514 56.0348 32.2169 56.0348 33.4066C56.0348 34.5962 57.0003 35.5618 58.1899 35.5618Z" fill="#B5B5B5"/>
<path fill-rule="evenodd" clip-rule="evenodd" d="M96.9819 17.2422C93.4129 17.2422 90.5164 20.1387 90.5164 23.7077C90.5164 27.2767 93.4129 30.1733 96.9819 30.1733C100.551 30.1733 103.447 27.2767 103.447 23.7077C103.447 20.1387 100.551 17.2422 96.9819 17.2422ZM96.9819 21.5525C98.1715 21.5525 99.1371 22.5181 99.1371 23.7077C99.1371 24.8974 98.1715 25.8629 96.9819 25.8629C95.7922 25.8629 94.8267 24.8974 94.8267 23.7077C94.8267 22.5181 95.7922 21.5525 96.9819 21.5525ZM94.8267 41.8414V45.2595C94.8267 46.9751 94.1457 48.6194 92.9323 49.8306C91.7211 51.044 90.0767 51.7251 88.3612 51.7251H75.4302C71.859 51.7251 68.9646 54.6195 68.9646 58.1906V60.7144C66.4539 61.6023 64.6543 63.9988 64.6543 66.8113C64.6543 70.3803 67.5508 73.2769 71.1198 73.2769C74.6888 73.2769 77.5853 70.3803 77.5853 66.8113C77.5853 63.9988 75.7858 61.6023 73.275 60.7144V58.1906C73.275 57.0009 74.2405 56.0354 75.4302 56.0354H88.3612C91.219 56.0354 93.9603 54.8997 95.9819 52.8803C98.0013 50.8587 99.1371 48.1173 99.1371 45.2595V41.8414L104.079 46.7832C104.919 47.6237 106.286 47.6237 107.126 46.7832C107.967 45.9427 107.967 44.5764 107.126 43.7359L98.5056 35.1152C97.6651 34.2725 96.2987 34.2725 95.4582 35.1152L86.8375 43.7359C85.997 44.5764 85.997 45.9427 86.8375 46.7832C87.678 47.6237 89.0444 47.6237 89.8849 46.7832L94.8267 41.8414ZM71.1198 64.6561C72.3095 64.6561 73.275 65.6217 73.275 66.8113C73.275 68.001 72.3095 68.9665 71.1198 68.9665C69.9302 68.9665 68.9646 68.001 68.9646 66.8113C68.9646 65.6217 69.9302 64.6561 71.1198 64.6561Z" fill="#B5B5B5"/>
<path fill-rule="evenodd" clip-rule="evenodd" d="M92.6725 64.1149L89.8385 61.4512C88.9721 60.6366 87.6057 60.6797 86.7911 61.5461C85.9764 62.4124 86.0195 63.7766 86.8859 64.5913L89.526 67.0719L86.8859 69.5525C86.0195 70.3671 85.9764 71.7335 86.7911 72.5999C87.6057 73.4663 88.9721 73.5094 89.8385 72.6947L92.6725 70.0309L95.5066 72.6947C96.373 73.5094 97.7394 73.4663 98.554 72.5999C99.3687 71.7335 99.3255 70.3671 98.4592 69.5525L95.8191 67.0719L98.4592 64.5913C99.3255 63.7766 99.3687 62.4124 98.554 61.5461C97.7394 60.6797 96.373 60.6366 95.5066 61.4512L92.6725 64.1149Z" fill="#B5B5B5"/>
<path fill-rule="evenodd" clip-rule="evenodd" d="M75.4303 37.9899L72.5963 35.3262C71.7299 34.5116 70.3635 34.5547 69.5489 35.4211C68.7342 36.2874 68.7773 37.6516 69.6437 38.4663L72.2838 40.9469L69.6437 43.4275C68.7773 44.2421 68.7342 45.6085 69.5489 46.4749C70.3635 47.3413 71.7299 47.3844 72.5963 46.5697L75.4303 43.9059L78.2644 46.5697C79.1308 47.3844 80.4972 47.3413 81.3118 46.4749C82.1265 45.6085 82.0834 44.2421 81.217 43.4275L78.5769 40.9469L81.217 38.4663C82.0834 37.6516 82.1265 36.2874 81.3118 35.4211C80.4972 34.5547 79.1308 34.5116 78.2644 35.3262L75.4303 37.9899Z" fill="#B5B5B5"/>
<path fill-rule="evenodd" clip-rule="evenodd" d="M75.4303 20.7517L72.5963 18.0879C71.7299 17.2733 70.3635 17.3164 69.5489 18.1828C68.7342 19.0492 68.7773 20.4133 69.6437 21.228L72.2838 23.7086L69.6437 26.1892C68.7773 27.0039 68.7342 28.3702 69.5489 29.2366C70.3635 30.103 71.7299 30.1461 72.5963 29.3315L75.4303 26.6676L78.2644 29.3315C79.1308 30.1461 80.4972 30.103 81.3118 29.2366C82.1265 28.3702 82.0834 27.0039 81.217 26.1892L78.5769 23.7086L81.217 21.228C82.0834 20.4133 82.1265 19.0492 81.3118 18.1828C80.4972 17.3164 79.1308 17.2733 78.2644 18.0879L75.4303 20.7517Z" fill="#B5B5B5"/>
<path fill-rule="evenodd" clip-rule="evenodd" d="M40.0711 90.5176L26.6358 115.47C24.944 118.612 26.1207 122.535 29.2629 124.227C32.4052 125.919 36.3276 124.742 38.0194 121.6L43.153 112.069H81.847L86.9806 121.6C88.6724 124.742 92.5948 125.919 95.7371 124.227C98.8793 122.535 100.056 118.612 98.3642 115.47L84.9289 90.5176H118.534C122.106 90.5176 125 87.6232 125 84.052C125 80.4809 122.106 77.5865 118.534 77.5865H116.379V12.9311H118.534C122.106 12.9311 125 10.0367 125 6.46554C125 2.89441 122.106 0 118.534 0H6.46552C2.8944 0 0 2.89441 0 6.46554C0 10.0367 2.8944 12.9311 6.46552 12.9311H8.62069V77.5865H6.46552C2.8944 77.5865 0 80.4809 0 84.052C0 87.6232 2.8944 90.5176 6.46552 90.5176H40.0711ZM34.2241 119.556L49.8621 90.5176H44.9655L30.431 117.513C29.8664 118.561 30.2586 119.869 31.306 120.431C32.3534 120.996 33.6616 120.604 34.2241 119.556ZM75.1379 90.5176L90.7758 119.556C91.3383 120.604 92.6465 120.996 93.694 120.431C94.7414 119.869 95.1336 118.561 94.569 117.513L80.0345 90.5176H75.1379ZM47.7931 103.449L45.4741 107.759H79.5258L77.2047 103.449H47.7931ZM50.1142 99.1383H74.8858L70.2435 90.5176H54.7565L50.1142 99.1383ZM88.3621 77.5865H112.069V12.9311H12.931V77.5865H79.7414C80.931 77.5865 81.8965 78.552 81.8965 79.7417C81.8965 80.9313 80.931 81.8968 79.7414 81.8968H6.46552C5.27586 81.8968 4.31034 82.8624 4.31034 84.052C4.31034 85.2417 5.27586 86.2072 6.46552 86.2072H118.534C119.724 86.2072 120.69 85.2417 120.69 84.052C120.69 82.8624 119.724 81.8968 118.534 81.8968H88.3621C87.1724 81.8968 86.2069 80.9313 86.2069 79.7417C86.2069 78.552 87.1724 77.5865 88.3621 77.5865ZM120.69 6.46554C120.69 5.27588 119.724 4.31036 118.534 4.31036H6.46552C5.27586 4.31036 4.31034 5.27588 4.31034 6.46554C4.31034 7.6552 5.27586 8.62072 6.46552 8.62072H118.534C119.724 8.62072 120.69 7.6552 120.69 6.46554Z" fill="#B5B5B5"/>
</svg>
