<svg width="118" height="114" viewBox="0 0 118 114" fill="none" xmlns="http://www.w3.org/2000/svg">
<path d="M89.8438 25.3906H82.0312C80.8594 25.3906 80.0781 26.1719 80.0781 27.3438C80.0781 28.5156 80.8594 29.2969 82.0312 29.2969H89.8438C91.0156 29.2969 91.7969 28.5156 91.7969 27.3438C91.7969 26.1719 91.0156 25.3906 89.8438 25.3906ZM95.7031 17.5781H82.0312C80.8594 17.5781 80.0781 18.3594 80.0781 19.5312C80.0781 20.7031 80.8594 21.4844 82.0312 21.4844H95.7031C96.875 21.4844 97.6562 20.7031 97.6562 19.5312C97.6562 18.3594 96.875 17.5781 95.7031 17.5781ZM60.5469 7.8125H54.6875C53.5156 7.8125 52.7344 8.59375 52.7344 9.76562C52.7344 10.9375 53.5156 11.7188 54.6875 11.7188H60.5469C61.7188 11.7188 62.5 10.9375 62.5 9.76562C62.5 8.59375 61.7188 7.8125 60.5469 7.8125Z" fill="#B5B5B5"/>
<path d="M111.328 7.8125H76.1719V5.85938C76.1719 2.53906 73.6328 0 70.3125 0H50.7812C46.4844 0 44.9219 3.51562 44.9219 5.85938V15.625C44.9219 18.75 47.4609 21.4844 50.7812 21.4844H53.9063L58.3984 25.9766L19.3359 33.3984C19.3359 33.3984 14.2578 34.375 10.3516 39.4531C10.1563 39.4531 9.96094 39.4531 9.76562 39.4531C6.44531 40.0391 0 43.9453 0 54.8828C0 65.8203 6.25 69.7266 9.76562 70.3125C9.96094 70.3125 9.96094 70.3125 10.1562 70.3125H10.3516C12.1094 72.6563 14.2578 74.2188 15.8203 75C15.8203 75.1953 16.0156 75.3906 16.2109 75.5859L43.5547 110.742C43.75 110.938 43.9453 111.133 44.1406 111.133C45.7031 112.5 47.8516 113.281 50 113.281C54.8828 113.281 58.7891 109.375 58.7891 104.492C58.7891 102.344 58.0078 100.391 56.6406 98.6328C56.6406 98.4375 56.4453 98.4375 56.4453 98.2422L41.6016 80.2734L81.8359 87.8906C82.0313 87.8906 82.0312 87.8906 82.2266 87.8906C82.4219 87.8906 82.4219 87.8906 82.6172 87.8906C82.8125 87.8906 83.0078 87.8906 83.2031 87.8906C92.5781 87.8906 99.8047 73.2422 99.8047 54.6875C99.8047 50.5859 99.4141 46.4844 98.8281 42.9688L102.734 39.0625H111.328C114.453 39.0625 117.188 36.5234 117.188 33.2031V13.6719C117.188 11.3281 115.625 7.8125 111.328 7.8125ZM71.875 68.3594C70.8984 64.4531 70.3125 59.7656 70.3125 54.6875C70.3125 49.6094 70.8984 44.9219 71.875 41.0156C72.0703 41.0156 72.0703 41.0156 72.2656 41.0156C76.5625 41.0156 80.0781 47.2656 80.0781 54.6875C80.0781 62.1094 76.5625 68.3594 72.2656 68.3594C72.0703 68.3594 72.0703 68.3594 71.875 68.3594ZM54.6875 17.5781H50.7812C49.8047 17.5781 48.8281 16.7969 48.8281 15.625V5.85938C48.8281 4.88281 49.2187 3.90625 50.7812 3.90625H70.3125C71.4844 3.90625 72.2656 4.6875 72.2656 5.85938V15.625C72.2656 16.7969 71.4844 17.5781 70.3125 17.5781H64.4531C63.2812 17.5781 62.5 18.3594 62.5 19.5312V24.6094L56.0547 18.1641C55.6641 17.7734 55.2734 17.5781 54.6875 17.5781ZM66.4062 21.4844H70.3125V23.6328L66.4062 24.4141V21.4844ZM63.0859 30.6641C63.4766 31.0547 63.8672 31.25 64.4531 31.25C64.6484 31.25 65.0391 31.25 65.2344 31.0547C66.0156 30.6641 66.4062 30.0781 66.4062 29.2969V28.3203L70.3125 27.5391V33.0078C67.9687 38.6719 66.4062 46.2891 66.4062 54.4922C66.4062 66.2109 69.3359 76.3672 73.8281 82.2266L35.9375 75.1953C33.0078 69.7266 31.4453 62.3047 31.4453 54.6875C31.4453 47.0703 33.0078 39.6484 35.9375 34.1797L61.7187 29.2969L63.0859 30.6641ZM3.90625 54.6875C3.90625 49.2188 5.66406 46.2891 7.42188 44.7266C6.44531 47.4609 5.85938 50.5859 5.85938 54.6875C5.85938 58.5938 6.44531 61.9141 7.42188 64.4531C5.66406 63.0859 3.90625 60.1562 3.90625 54.6875ZM9.76562 54.6875C9.76562 39.0625 19.5312 37.1094 19.9219 37.1094L31.0547 34.9609C28.7109 40.625 27.3438 47.4609 27.3438 54.6875C27.3438 61.9141 28.7109 68.75 31.0547 74.4141L19.7266 72.2656C19.7266 72.2656 9.76562 70.5078 9.76562 54.6875ZM35.5469 79.2969L52.7344 100.391C52.7344 100.586 52.9297 100.781 53.125 100.977C54.1016 101.953 54.4922 103.125 54.4922 104.492C54.4922 107.227 52.3437 109.375 49.6094 109.375C48.2422 109.375 47.0703 108.789 46.0938 108.008L45.8984 107.813L21.875 76.5625L35.5469 79.2969ZM95.7031 54.6875C95.7031 72.2656 89.0625 83.9844 83.0078 83.9844C79.2969 83.9844 75.3906 79.6875 72.8516 72.2656C79.1016 71.6797 83.9844 64.2578 83.9844 54.6875C83.9844 47.8516 81.4453 41.9922 77.7344 39.0625H89.8438V46.875C89.8438 47.6563 90.2344 48.4375 91.0156 48.6328C91.2109 48.8281 91.6016 48.8281 91.7969 48.8281C92.3828 48.8281 92.7734 48.6328 93.1641 48.2422L95.1172 46.2891C95.5078 48.8281 95.7031 51.7578 95.7031 54.6875ZM113.281 33.2031C113.281 34.1797 112.5 35.1562 111.328 35.1562H101.562C100.977 35.1562 100.586 35.3516 100.195 35.7422L93.75 42.1875V37.1094C93.75 35.9375 92.9688 35.1562 91.7969 35.1562H76.1719C75 35.1562 74.2188 34.375 74.2188 33.2031V19.9219C75.3906 18.9453 76.1719 17.3828 76.1719 15.625V11.7188H111.328C112.891 11.7188 113.281 12.6953 113.281 13.6719V33.2031Z" fill="#B5B5B5"/>
</svg>
